<svg xmlns="http://www.w3.org/2000/svg" viewBox="0 0 64 64" width="64" height="64">
  <defs>
    <linearGradient id="bg" x1="0" y1="0" x2="1" y2="1">
      <stop offset="0" stop-color="#9fb7c9"/>
      <stop offset="1" stop-color="#5f7d93"/>
    </linearGradient>
    <linearGradient id="skin" x1="0" y1="0" x2="0" y2="1">
      <stop offset="0" stop-color="#e8b996"/>
      <stop offset="1" stop-color="#c98f6b"/>
    </linearGradient>
  </defs>
  <rect width="64" height="64" fill="url(#bg)"/>
  <path d="M8 64c2-13 12-19 24-19s22 6 24 19z" fill="#2f3a45"/>
  <path d="M26 40h12v8c0 3-3 5-6 5s-6-2-6-5z" fill="#c98f6b"/>
  <ellipse cx="32" cy="28" rx="11" ry="13" fill="url(#skin)"/>
  <path d="M20 27c-1-10 5-16 13-16 9 0 13 6 12 15-2-5-6-8-12-8-6 0-10 3-13 9z" fill="#3b2a20"/>
</svg>
